<?xml version="1.0" encoding="UTF-8" standalone="no" ?>
<!DOCTYPE svg PUBLIC "-//W3C//DTD SVG 1.1//EN" "http://www.w3.org/Graphics/SVG/1.1/DTD/svg11.dtd">
<svg xmlns="http://www.w3.org/2000/svg" xmlns:xlink="http://www.w3.org/1999/xlink" version="1.1" width="640" height="640" viewBox="0 0 640 640" xml:space="preserve">
<desc>Created with Fabric.js 4.6.0</desc>
<defs>
</defs>
<g transform="matrix(6.54 0 0 6.54 320.12 320.12)" id="x_wm2cepU2A32u48xGM5R"  >
<path style="stroke: rgb(236,196,117); stroke-width: 0; stroke-dasharray: none; stroke-linecap: butt; stroke-dashoffset: 0; stroke-linejoin: miter; stroke-miterlimit: 4; fill: rgb(0,0,0); fill-rule: nonzero; opacity: 1;" vector-effect="non-scaling-stroke"  transform=" translate(0, 0)" d="M -48.85496 -48.85496 L 48.85496 -48.85496 L 48.85496 48.85496 L -48.85496 48.85496 z" stroke-linecap="round" />
</g>
<g transform="matrix(1 0 0 1 316.66 318.94)" id="DABLoXpsFjLTBpukKLP8d"  >
<path style="stroke: rgb(255,255,255); stroke-width: 0; stroke-dasharray: none; stroke-linecap: butt; stroke-dashoffset: 0; stroke-linejoin: miter; stroke-miterlimit: 4; fill: rgb(18,18,255); fill-rule: nonzero; opacity: 0.62;" vector-effect="non-scaling-stroke"  transform=" translate(0, 0)" d="M -89.89313 -267.72519 L 89.89313 -173.92365999999998 L 89.89313 246.22901000000002 L 75.23664 267.72519 L 75.23664 -25.40458000000001 L -89.89313000000001 -111.38931000000001 z" stroke-linecap="round" />
</g>
<g transform="matrix(1 0 0 1 261.26 320.06)" id="nYiY3-Vk3-RAxcgmN_8YD"  >
<path style="stroke: rgb(255,255,255); stroke-width: 0; stroke-dasharray: none; stroke-linecap: butt; stroke-dashoffset: 0; stroke-linejoin: miter; stroke-miterlimit: 4; fill: rgb(18,255,18); fill-rule: nonzero; opacity: 0.62;" vector-effect="non-scaling-stroke"  transform=" translate(0, 0)" d="M -89.89313 -267.72519 L 89.89313 -173.92365999999998 L 89.89313 246.22901000000002 L 75.23664 267.72519 L 75.23664 -25.40458000000001 L -89.89313000000001 -111.38931000000001 z" stroke-linecap="round" />
</g>
<g transform="matrix(1 0 0 1 211.95 319.94)" id="oDyBLRePOlnCI3D4R4-TF"  >
<path style="stroke: rgb(255,255,255); stroke-width: 0; stroke-dasharray: none; stroke-linecap: butt; stroke-dashoffset: 0; stroke-linejoin: miter; stroke-miterlimit: 4; fill: rgb(255,18,18); fill-rule: nonzero; opacity: 0.62;" vector-effect="non-scaling-stroke"  transform=" translate(0, 0)" d="M -89.89313 -267.72519 L 89.89313 -173.92365999999998 L 89.89313 246.22901000000002 L 75.23664 267.72519 L 75.23664 -25.40458000000001 L -89.89313000000001 -111.38931000000001 z" stroke-linecap="round" />
</g>
</svg>